<svg xmlns="http://www.w3.org/2000/svg" viewBox="0 0 447.75 295.09"><defs><style>.cls-1{fill:#115986;}</style></defs><g id="Layer_2" data-name="Layer 2"><g id="Layer_1-2" data-name="Layer 1"><path class="cls-1" d="M192.58,194.76q10.66,8.51,21.54,16.72c10.18,7.67,19,16.82,27.26,26.57,6.62,7.84,11.91,16.64,18.22,24.71A77.14,77.14,0,0,0,274,276.7a7.68,7.68,0,0,1,3.23,4.06c.31,1.19,1.31,1.4,2.17,1.82,1.92.93,3.53,2.18,3.95,4.38a5.14,5.14,0,0,1-5.54,6.31c-4.58-.21-9.15-.68-13.72-1a48.71,48.71,0,0,0-15,.84,46,46,0,0,1-11.73,1.44c-4-.09-8,.19-12.07.43a84.4,84.4,0,0,1-26-2.88,183.94,183.94,0,0,1-30-10.13c-6.95-3.12-12.2-8-16.62-14a84.06,84.06,0,0,1-14.39-31.8,38.85,38.85,0,0,1-.44-14.54c.19-1.19.22-2.13-.91-2.68a2.88,2.88,0,0,0-3.53.43,9.27,9.27,0,0,0-2.3,5.59c-1.36,10.16-.78,20.15,3.15,29.78,1.17,2.87,1.14,2.87-1.89,2.91-13.3.18-26.6.16-39.88.59-18.51.59-37,.88-55.55,1.26-9,.18-17.89,1.41-26.88,1.14-1.91-.05-3.83,0-5.62-.8a5.23,5.23,0,0,1-3.34-4.3c-.31-3,.68-4.12,3.7-4.15,13-.15,26-.18,39-.5,15.56-.38,31.12-.28,46.68-.52,6.57-.1,13.14-.47,19.71-.31a2.73,2.73,0,0,0,2.72-1.34c1.08-2.43,3-4.25,4.25-6.56,1.06-2,.74-3.8-.87-4.86-1.4-.92-3-.53-4.46,1.1a9.11,9.11,0,0,0-1.67,2.18c-1.33,3-3.73,3.13-6.59,3.14-13.93.05-27.86.14-41.79.52-10.6.3-21.21.16-31.81.38q-12.93.27-25.86.64c-1.17,0-1.76-.12-1.83-1.54C1.67,231.14.61,218.61.56,206c0-9.32-.05-18.66-.37-28-.51-14.29.15-28.56.26-42.84.09-11,.44-22,.82-33.06.46-13.43.5-26.86.69-40.29A339.58,339.58,0,0,1,4.83,26.38c.61-5.14,1.39-10.21,3.58-15A12.8,12.8,0,0,1,18.62,3.77a94.87,94.87,0,0,1,12.23-1c11.24-.31,22.41-1.58,33.64-2C73.53.42,82.57.11,91.62,0s17.91.94,26.82,1.92a153.23,153.23,0,0,0,16.72.75c9.27,0,18.54-.16,27.8.09,10.32.28,20.65,0,31,.32,4.37.14,8.74.51,13.11.76.84,0,1.45.28,1.15,1.26-2.28,7.44,4.81,15,12.76,16.55,6.75,1.36,11.66-1.15,15.51-7.89.91-1.59,1.68-3.26,2.43-4.93.39-.89.84-1.06,1.78-.81a32,32,0,0,1,12.74,6.47,2.28,2.28,0,0,1,.93,2.58,7.57,7.57,0,0,0,.07,3.78c.64,2.7,2.31,3.91,4.94,3.23a1.68,1.68,0,0,1,2.22.87c4,6.06,6.21,12.8,7.78,19.81.25,1.12-.36,1.56-1.18,2.16-4.54,3.37-7.92,7.41-7.69,13.55a10.6,10.6,0,0,0,10.08,10c1.12,0,2.22-.26,2.27,1.58.37,15.9,1.54,31.77,1.14,47.69-.42,16.53-.73,33.06-1.32,49.59-.39,11,0,21.92-.25,32.87a2,2,0,0,0,1.82,2.37c12.73,2.75,25.15,6.6,38.42,7.12,12.42.48,22.95-3.59,33.2-9.62a4.44,4.44,0,0,0,2-2.42c1.89-5.25,3.73-10.51,5.69-15.73.53-1.39.32-2-1-2.79-14-8.52-26.13-19.08-35.13-32.88-8.57-13.14-10.86-27.52-7.53-42.82a8.74,8.74,0,0,1,1-2.55c1.08-1.86,1.57-1.88,3.08-.43a2.73,2.73,0,0,0,1.21.81c4.27.75,5.8,4.18,7.21,7.55.89,2.13,2.12,3.42,4.44,3.6a10.57,10.57,0,0,1,3.85,1.09c3,1.45,5,3.58,5,7.17,0,2.15,1.32,3.27,3.51,3.39,7,.38,10.32,3.1,12.25,10,1,3.45,2.93,4.35,6.19,2.88,1.67-.75,2.66.25,3.48,1.49a37.34,37.34,0,0,1,3.63,7.4c.9,2.33,3,3.32,4.65,4.73,1.31,1.11,3.64-.09,4.16-1.93.36-1.28.42-2.65.83-3.91,1.21-3.71,3.38-6.5,7.47-7.27a15.29,15.29,0,0,0,1.65-.41c4.92-1.54,5-1.74,5.26-6.94.22-4.63,3.62-6.78,7.19-8.62a15.76,15.76,0,0,1,7.16-1.7,6.63,6.63,0,0,0,6-3.24c3.21-5,8.27-6.45,13.85-6.93,3-.26,5.86-.55,8.64,1a3.17,3.17,0,0,0,3.79-.43c2.69-2.64,6.1-2.27,9.37-2.53a2.84,2.84,0,0,1,2.84,1.84c.6,1.22,0,2.11-.79,3-5.94,6.47-11.4,13.33-15.16,21.32-2.89,6.13-5.27,12.49-8,18.67A44.18,44.18,0,0,1,414,167.9c-2.16,2.11-5.3,2.88-7.85,4.55-2.11,1.37-4.59,2.17-6.8,3.41-2.49,1.39-5.24,1.55-7.93,2a7.37,7.37,0,0,0-3.82,1.66c-1.46,1.29-3.31.89-5.06.63-.92-.14-1.85-.26-1.24,1.21,4.64,11.05,3.83,22.2.61,33.41-2.81,9.76-6.47,19.1-12.15,27.62A28.9,28.9,0,0,1,351.58,255a319.37,319.37,0,0,1-53.82,7.66c-10.17.61-20.35-.32-30.53-.44a3.35,3.35,0,0,1-2.51-1.33c-5.23-5.53-9.34-11.89-13.34-18.29-6.48-10.38-15.58-18.17-24.71-26-2.74-2.33-5.16-5-7.78-7.5-7.53-7.09-16.47-11.84-26-15.54a13.68,13.68,0,0,0-5.39-2.15l-.07-.1.08.09C189.23,192.49,190.67,194,192.58,194.76Zm-47.16-82.63c.25-3.42-.82-6.39-3.64-8.34-5.39-3.75-16.5-3.69-20.65,4.78-2.9,5.92-1.7,11.42,4,16.57,4.76,4.27,13.1,3.45,16.94-1.66C144.65,120.11,145.26,116.18,145.42,112.13Zm73.85-45.38c0,2.65.22,3.5,1.4,5a8,8,0,0,0,12.26-.1,12.14,12.14,0,0,0,2.91-9.84A6.93,6.93,0,0,0,230.79,56c-2.59-.84-5.36-1-7.52,1.25A12.68,12.68,0,0,0,219.27,66.75Zm-25.35-22a12.25,12.25,0,0,0,3.34,8.21A4.54,4.54,0,0,0,201,54.61c3.36-.24,6.43-1.3,8-4.66,1.43-3.15,2.3-6.44.17-9.65-2.38-3.59-6.26-3.59-9.87-3.46C196.21,37,194,40.72,193.92,44.71Zm21.22,76.71c0,4.61,3.37,8.35,7.51,8.41s8.08-4.72,8.19-9.54c.1-4.22-3.23-7.1-8.24-7.15C218.16,113.09,215.11,116.62,215.14,121.42Zm-95-107.76a26.65,26.65,0,0,0,11.19-1.5c2.09-.71,3.24-2,2.92-3.77-.37-2-2.06-3-4.36-2.55a37.37,37.37,0,0,1-11,.53,16.75,16.75,0,0,0-5.65,0c-2.33.58-3.78,1.77-3.74,3.39,0,2.17,1.74,3.77,4.24,3.86C115.91,13.73,118,13.66,120.15,13.66Zm73.28,88.6a5.35,5.35,0,0,0-3.07-5.58,4.8,4.8,0,0,0-5.58.37c-2.2,1.82-3.63,4.07-3.28,7.17a6.45,6.45,0,0,0,5.22,5.65c2.7.44,4.87-1,6-3.93A8.75,8.75,0,0,0,193.43,102.26Zm64-18.21c-3,0-5,2.31-4.93,5.64a5.51,5.51,0,0,0,5.62,5.37c2.67,0,4.42-2.21,4.45-5.6S260.48,84,257.4,84.05Zm-25.53,4.69a3.74,3.74,0,0,0-3.69,1.62c-1.43,2.17-.21,6.89,2.08,8.09a4.55,4.55,0,0,0,3,.65c2.62-.5,4.06-2.8,3.77-6.18C236.86,90.45,234.9,88.81,231.87,88.74ZM199,74.19a4.21,4.21,0,0,0-4.31-4.46,4.65,4.65,0,0,0-4.4,4.55c0,2.09,2.48,4.59,4.69,4.66S199,77,199,74.19Zm45.63-36.06c-.07-3.47-1.25-5.18-3.6-5.21s-4.3,2.34-4.22,5.37a4.29,4.29,0,0,0,4,4.13A4.14,4.14,0,0,0,244.59,38.13Z"/></g></g></svg>